<?xml version="1.0" encoding="utf-8"?>
<!-- Generator: Adobe Illustrator 25.1.0, SVG Export Plug-In . SVG Version: 6.00 Build 0)  -->
<svg version="1.1" id="Calque_1" xmlns="http://www.w3.org/2000/svg" xmlns:xlink="http://www.w3.org/1999/xlink" x="0px" y="0px"
	 viewBox="0 0 50 50" style="enable-background:new 0 0 50 50;" xml:space="preserve">
<style type="text/css">
	.st0{fill:#272727;}
</style>
<path class="st0" d="M42.1,37.5L29.5,25L42,12.5c1.3-1.3,1.3-3.3,0-4.5c-1.3-1.3-3.3-1.3-4.5,0L25,20.5L12.5,7.9
	c-1.3-1.3-3.3-1.3-4.5,0c-1.3,1.3-1.3,3.3,0,4.5L20.5,25L7.9,37.5c-1.3,1.3-1.3,3.3,0,4.5c0.6,0.6,1.5,0.9,2.3,0.9
	c0.8,0,1.6-0.3,2.3-0.9L25,29.5l12.5,12.5c0.6,0.6,1.5,0.9,2.3,0.9s1.6-0.3,2.3-0.9C43.3,40.8,43.3,38.8,42.1,37.5z"/>
</svg>
