<svg width="24" height="24" viewBox="0 0 24 24" fill="none" xmlns="http://www.w3.org/2000/svg">
<g clip-path="url(#clip0)">
<path d="M18.546 1H5.477L0 9.986V23H24V9.986L18.546 1ZM6.6 3H17.42L21.669 10H2.334L6.6 3ZM2 21V12H22V21H2ZM5 9L5.607 8H18.393L19 9H5ZM17.787 7H6.215L6.821 6H17.18L17.787 7ZM16.572 5H7.428L8.035 4H15.966L16.572 5ZM15 16H9C8.447 16 8 15.552 8 15C8 14.448 8.447 14 9 14H15C15.553 14 16 14.448 16 15C16 15.552 15.553 16 15 16Z" fill="#4C14E9"/>
</g>
<defs>
<clipPath id="clip0">
<rect width="24" height="24" fill="white"/>
</clipPath>
</defs>
</svg>
