<?xml version="1.0" encoding="UTF-8" standalone="no"?>
<!DOCTYPE svg PUBLIC "-//W3C//DTD SVG 1.1//EN" "http://www.w3.org/Graphics/SVG/1.1/DTD/svg11.dtd">
<svg width="100%" height="100%" viewBox="0 0 86 23" version="1.1" xmlns="http://www.w3.org/2000/svg" xmlns:xlink="http://www.w3.org/1999/xlink" xml:space="preserve" xmlns:serif="http://www.serif.com/" style="fill-rule:evenodd;clip-rule:evenodd;stroke-linejoin:round;stroke-miterlimit:2;">
    <path d="M7.195,16.995L6.141,16.995C5.396,16.995 5.024,16.499 5.024,15.786L5.024,0.31L0,0.31L0,15.724C0,20.097 1.613,22.019 5.986,22.019L7.195,22.019L7.195,16.995Z" style="fill:rgb(0,5,46);fill-rule:nonzero;"/>
    <path d="M16.592,6.265C12.188,6.265 8.59,9.862 8.59,14.266C8.59,18.67 12.188,22.267 16.592,22.267C20.996,22.267 24.593,18.67 24.593,14.266C24.593,9.862 20.996,6.265 16.592,6.265ZM16.592,11.289C18.236,11.289 19.569,12.622 19.569,14.266C19.569,15.91 18.236,17.243 16.592,17.243C14.948,17.243 13.615,15.91 13.615,14.266C13.615,12.622 14.948,11.289 16.592,11.289Z" style="fill:rgb(0,5,46);fill-rule:nonzero;"/>
    <path d="M32.941,4.745L35.391,4.745L35.391,0.31L32.941,0.31C29.003,0.31 26.459,2.357 26.459,6.482L26.459,22.019L31.391,22.019L31.422,10.886L35.391,10.886L35.391,6.513L31.422,6.513L31.422,6.234C31.422,5.396 32.042,4.745 32.941,4.745Z" style="fill:rgb(0,5,46);fill-rule:nonzero;"/>
    <path d="M42.982,2.791C42.982,4.497 41.804,5.644 40.098,5.644C38.61,5.644 37.276,4.497 37.276,2.791C37.276,1.334 38.61,0 40.098,0C41.804,0 42.982,1.334 42.982,2.791ZM42.579,22.019L37.679,22.019L37.679,6.513L42.579,6.513L42.579,22.019Z" style="fill:rgb(0,5,46);fill-rule:nonzero;"/>
    <path d="M54.148,6.513L51.915,6.513C50.954,6.513 50.023,6.668 49.124,7.226L49.124,6.513L45.278,6.513L45.278,22.019L50.24,22.019L50.24,13.088C50.24,12.064 51.078,11.258 52.101,11.258L54.148,11.258L54.148,6.513Z" style="fill:rgb(0,5,46);fill-rule:nonzero;"/>
    <path d="M63.005,22.267C59.221,22.267 56.151,19.197 56.151,15.414L56.151,6.513L61.144,6.513L61.144,15.414C61.144,16.437 61.981,17.274 63.005,17.274C64.028,17.274 64.866,16.437 64.866,15.414L64.866,6.513L69.859,6.513L69.859,15.414C69.859,19.197 66.789,22.267 63.005,22.267Z" style="fill:rgb(0,5,46);fill-rule:nonzero;"/>
    <path d="M79.549,6.265C78.371,6.265 77.254,6.606 76.2,7.226L76.2,6.513L72.354,6.513L72.354,22.019L77.316,22.019L77.316,13.088C77.316,12.064 78.154,11.258 79.177,11.258C80.201,11.258 81.007,12.064 81.007,13.088L81.007,22.019L86,22.019L86,13.088C86,9.335 83.178,6.265 79.549,6.265Z" style="fill:rgb(0,5,46);fill-rule:nonzero;"/>
</svg>
